<?xml version="1.0"?>
<svg xmlns="http://www.w3.org/2000/svg" id="Layer_1" enable-background="new 0 0 512 512" height="512px" viewBox="0 0 512 512" width="512px"><g><g><path d="m391.188 213.832h-99.993v-21.888c0-4.143-3.357-7.5-7.5-7.5h-20.322v-30.934c0-10.654 8.668-19.322 19.322-19.322 18.925 0 34.321-15.396 34.321-34.321v-35.823c0-4.143-3.357-7.5-7.5-7.5s-7.5 3.357-7.5 7.5v35.822c0 10.654-8.667 19.321-19.321 19.321-18.926 0-34.322 15.396-34.322 34.322v30.934h-20.066c-4.143 0-7.5 3.357-7.5 7.5v21.888h-99.994c-66.617.001-120.813 54.197-120.813 120.813 0 37.687 17.117 72.538 46.963 95.619 3.275 2.535 7.987 1.933 10.521-1.345 2.534-3.276 1.933-7.986-1.345-10.521-26.145-20.219-41.139-50.745-41.139-83.753 0-58.346 47.467-105.813 105.812-105.813h46.161l22.917 45.187c1.277 2.52 3.863 4.107 6.688 4.107h41.843c4.143 0 7.5-3.357 7.5-7.5s-3.357-7.5-7.5-7.5h-37.237l-17.393-34.294h144.162l-17.393 34.294h-37.237c-4.143 0-7.5 3.357-7.5 7.5s3.357 7.5 7.5 7.5h41.843c2.825 0 5.411-1.588 6.688-4.107l22.917-45.187h46.416c58.346 0 105.813 47.467 105.813 105.813 0 58.345-47.467 105.812-105.813 105.812-38.76 0-74.38-21.16-92.959-55.223-1.313-2.41-3.839-3.909-6.584-3.909h-71.289c-2.745 0-5.271 1.499-6.584 3.909-18.579 34.063-54.199 55.223-92.96 55.223-12.763 0-25.235-2.245-37.072-6.674-3.881-1.451-8.202.517-9.652 4.396-1.451 3.88.517 8.201 4.396 9.652 13.523 5.06 27.765 7.625 42.328 7.625 42.752 0 82.154-22.543 103.901-59.132h62.574c21.747 36.589 61.149 59.132 103.9 59.132 66.616 0 120.813-54.196 120.813-120.812.001-66.615-54.195-120.811-120.811-120.811zm-114.994 0h-40.389v-14.388h40.389z" data-original="#000000" class="active-path" data-old_color="#000000" fill="#F5F9F9"/><path d="m418.712 333.838c16.06 0 29.125-13.065 29.125-29.126 0-16.06-13.065-29.125-29.125-29.125-16.061 0-29.126 13.065-29.126 29.125 0 16.061 13.065 29.126 29.126 29.126zm0-43.251c7.788 0 14.125 6.337 14.125 14.125 0 7.789-6.337 14.126-14.125 14.126-7.789 0-14.126-6.337-14.126-14.126 0-7.788 6.337-14.125 14.126-14.125z" data-original="#000000" class="active-path" data-old_color="#000000" fill="#F5F9F9"/><path d="m368.461 335.45c-16.061 0-29.126 13.065-29.126 29.125 0 16.061 13.065 29.126 29.126 29.126 16.06 0 29.125-13.065 29.125-29.126 0-16.06-13.065-29.125-29.125-29.125zm0 43.251c-7.789 0-14.126-6.337-14.126-14.126 0-7.788 6.337-14.125 14.126-14.125 7.788 0 14.125 6.337 14.125 14.125 0 7.789-6.337 14.126-14.125 14.126z" data-original="#000000" class="active-path" data-old_color="#000000" fill="#F5F9F9"/><path d="m96.023 386.201c0 4.143 3.357 7.5 7.5 7.5h34.577c4.143 0 7.5-3.357 7.5-7.5v-26.77h26.77c4.143 0 7.5-3.357 7.5-7.5v-34.576c0-4.143-3.357-7.5-7.5-7.5h-26.77v-26.768c0-4.143-3.357-7.5-7.5-7.5h-34.576c-4.143 0-7.5 3.357-7.5 7.5v26.768h-26.769c-4.143 0-7.5 3.357-7.5 7.5v34.576c0 4.143 3.357 7.5 7.5 7.5h26.769v26.77zm-19.268-41.77v-19.576h26.769c4.143 0 7.5-3.357 7.5-7.5v-26.768h19.576v26.768c0 4.143 3.357 7.5 7.5 7.5h26.77v19.576h-26.77c-4.143 0-7.5 3.357-7.5 7.5v26.77h-19.576v-26.77c0-4.143-3.357-7.5-7.5-7.5z" data-original="#000000" class="active-path" data-old_color="#000000" fill="#F5F9F9"/></g></g> </svg>
